<?xml version="1.0" standalone="no"?>
<!DOCTYPE svg PUBLIC "-//W3C//DTD SVG 20010904//EN"
 "http://www.w3.org/TR/2001/REC-SVG-20010904/DTD/svg10.dtd">
<svg version="1.0" xmlns="http://www.w3.org/2000/svg"
 width="2048.000000pt" height="2048.000000pt" viewBox="0 0 2048.000000 2048.000000"
 preserveAspectRatio="xMidYMid meet">
<metadata>
Created by potrace 1.14, written by Peter Selinger 2001-2017
</metadata>
<g transform="translate(0.000000,2048.000000) scale(0.100000,-0.100000)"
fill="#000000" stroke="none">
<path d="M18223 20458 c-18 -6 -33 -15 -33 -19 0 -5 -7 -9 -15 -9 -9 0 -18 -7
-21 -15 -4 -8 -10 -15 -15 -15 -5 0 -26 -19 -47 -42 -32 -37 -170 -180 -356
-369 -26 -27 -52 -49 -57 -49 -5 0 -9 -4 -9 -9 0 -4 -133 -143 -295 -307 -840
-849 -975 -987 -975 -997 0 -6 -3 -8 -6 -5 -5 6 -146 -135 -152 -153 -2 -5
-10 -9 -18 -9 -8 0 -14 -3 -14 -7 0 -5 -149 -158 -330 -342 -182 -183 -330
-338 -330 -344 0 -6 -3 -8 -6 -5 -6 7 -134 -122 -134 -134 0 -5 -7 -8 -16 -8
-8 0 -12 -4 -9 -10 3 -5 -2 -10 -11 -10 -10 0 -15 -2 -13 -5 3 -2 -167 -179
-378 -392 -211 -213 -383 -391 -383 -395 0 -4 -4 -8 -8 -8 -5 0 -35 -27 -68
-60 -32 -33 -193 -196 -356 -361 -164 -166 -298 -305 -298 -310 0 -5 -4 -9 -9
-9 -5 0 -53 -45 -107 -100 -251 -255 -927 -939 -945 -955 -53 -49 -179 -190
-179 -201 0 -7 -8 -18 -17 -23 -10 -6 -15 -11 -10 -11 4 0 0 -15 -10 -32 -9
-18 -18 -37 -19 -43 -2 -5 -10 -35 -18 -65 -20 -70 -15 -236 9 -300 23 -62 82
-173 106 -198 10 -12 19 -24 19 -26 0 -5 61 -83 143 -186 7 -8 23 -31 37 -50
13 -19 27 -37 30 -40 4 -3 40 -52 81 -110 40 -58 77 -106 81 -108 5 -2 8 -10
8 -18 0 -8 3 -14 8 -14 4 0 25 -30 47 -66 22 -36 46 -72 53 -79 6 -8 12 -16
12 -20 0 -3 5 -11 10 -18 26 -30 170 -270 170 -283 0 -8 4 -14 9 -14 5 0 17
-17 26 -37 10 -21 24 -46 33 -55 8 -10 12 -18 9 -18 -4 0 7 -23 23 -50 17 -28
30 -53 30 -56 0 -3 10 -20 22 -37 13 -18 22 -33 20 -35 -1 -1 23 -54 53 -117
30 -63 55 -117 55 -120 0 -2 11 -29 25 -60 47 -102 128 -323 127 -345 0 -3 4
-10 10 -17 5 -7 7 -16 4 -21 -3 -6 1 -15 8 -22 8 -6 13 -20 11 -31 -2 -10 0
-19 4 -19 4 0 8 -6 8 -12 1 -7 15 -69 33 -137 17 -68 33 -133 36 -145 2 -11 7
-34 10 -51 4 -16 8 -41 9 -55 1 -14 5 -36 9 -50 7 -28 11 -59 23 -170 9 -87 9
-410 0 -490 -14 -129 -19 -158 -37 -244 -29 -130 -49 -196 -61 -196 -6 0 -8 4
-5 8 3 5 -6 15 -19 22 -13 7 -22 17 -19 22 3 4 -2 8 -10 8 -8 0 -18 9 -21 20
-3 11 -10 20 -14 20 -12 0 -71 59 -71 70 0 6 -4 10 -8 10 -11 0 -352 340 -352
351 0 5 -4 9 -8 9 -14 0 -52 36 -52 49 0 6 -4 11 -10 11 -10 0 -70 59 -70 69
0 3 -14 15 -30 26 -16 11 -30 26 -30 33 0 6 -4 12 -8 12 -10 0 -92 79 -92 88
0 4 -14 16 -30 27 -16 11 -30 26 -30 33 0 6 -4 12 -8 12 -8 0 -208 194 -214
208 -2 4 -18 19 -36 35 -19 15 -31 27 -28 27 3 0 -11 16 -31 35 -20 19 -40 35
-44 35 -4 0 -11 9 -14 20 -3 11 -12 20 -18 20 -7 0 -21 14 -32 30 -11 16 -23
30 -26 30 -10 0 -89 81 -89 91 0 5 -6 9 -12 9 -7 1 -26 19 -43 40 -16 21 -33
39 -37 40 -11 0 -135 130 -130 135 3 3 -1 5 -9 5 -15 0 -45 39 -41 53 1 5 -2
6 -7 3 -9 -6 -141 120 -141 135 0 5 -7 9 -16 9 -8 0 -12 5 -9 10 3 6 1 10 -5
10 -13 0 -66 61 -63 72 2 4 -4 5 -12 2 -9 -4 -15 0 -15 9 0 9 -9 19 -20 22
-11 3 -20 13 -20 21 0 8 -7 14 -16 14 -8 0 -12 5 -9 10 3 6 -1 10 -10 10 -12
0 -15 5 -11 17 4 10 4 15 1 11 -10 -10 -135 105 -135 124 0 5 -4 6 -10 3 -5
-3 -10 1 -10 9 0 8 -9 18 -20 21 -11 3 -20 9 -20 13 0 4 -13 21 -30 38 -16 18
-26 35 -22 39 4 5 2 5 -4 2 -12 -7 -144 117 -144 134 0 5 -7 9 -16 9 -8 0 -12
5 -9 10 3 6 -1 10 -9 10 -8 0 -18 9 -21 20 -3 11 -11 20 -16 20 -12 0 -49 37
-49 50 0 6 -7 10 -16 10 -8 0 -13 3 -11 8 2 4 -6 17 -19 30 -13 12 -24 20 -24
17 0 -4 -7 0 -15 9 -8 8 -15 20 -15 26 0 6 -4 9 -8 6 -5 -3 -15 6 -22 19 -7
13 -17 22 -21 19 -4 -2 -11 2 -16 10 -13 23 -90 44 -131 36 -60 -12 -65 -14
-99 -44 -51 -45 -61 -73 -60 -170 1 -47 4 -86 7 -86 4 0 9 -56 13 -157 1 -13
3 -23 7 -23 8 0 5 -64 -4 -79 -6 -10 -5 -12 2 -7 8 5 12 -5 13 -31 0 -21 2
-45 4 -54 1 -9 6 -47 9 -85 4 -38 8 -85 11 -104 2 -19 7 -61 10 -93 3 -32 8
-79 11 -105 3 -26 7 -74 9 -107 3 -33 5 -60 6 -60 1 0 3 -22 4 -50 2 -27 5
-57 8 -65 3 -8 8 -49 12 -90 3 -41 8 -95 10 -120 3 -25 6 -61 8 -80 2 -19 6
-40 10 -47 4 -6 3 -14 -3 -18 -6 -4 -7 -12 -3 -18 4 -7 9 -23 10 -37 9 -117
12 -145 13 -145 3 0 12 -115 14 -162 0 -24 3 -43 6 -43 3 0 6 -17 7 -37 1 -21
5 -60 7 -88 3 -27 8 -81 11 -120 4 -38 7 -82 8 -97 2 -15 6 -30 10 -34 10 -10
9 -26 -2 -20 -5 3 -9 -4 -10 -17 -1 -29 -8 -71 -11 -74 -1 -2 -4 -6 -5 -10
-10 -33 -31 -73 -37 -73 -4 0 -8 -5 -8 -11 0 -15 -90 -105 -102 -101 -5 1 -7
-1 -4 -6 6 -10 -78 -94 -87 -87 -4 3 -5 2 -2 -2 3 -3 -24 -35 -59 -70 -35 -34
-62 -63 -59 -63 2 0 -10 -12 -29 -27 -43 -37 -78 -74 -78 -84 0 -5 -5 -9 -11
-9 -5 0 -23 -14 -39 -31 -18 -20 -33 -28 -41 -24 -8 5 -10 4 -5 -4 9 -13 -63
-93 -76 -85 -4 3 -5 -3 -1 -13 3 -10 3 -15 -1 -12 -4 4 -38 -25 -76 -63 -38
-39 -73 -67 -79 -64 -7 4 -8 1 -5 -8 4 -9 -1 -18 -10 -22 -9 -3 -13 -10 -10
-15 3 -5 1 -9 -5 -9 -5 0 -27 -17 -47 -37 -20 -21 -41 -37 -46 -35 -5 1 -7 -2
-4 -7 8 -13 -21 -34 -35 -25 -8 5 -9 3 -4 -5 8 -14 -91 -118 -108 -113 -4 1
-6 -2 -3 -6 8 -14 -31 -45 -45 -36 -8 4 -10 3 -5 -5 5 -8 -13 -33 -48 -68 -31
-31 -56 -53 -56 -49 0 4 -9 -2 -21 -12 -25 -24 -120 -55 -168 -55 -20 0 -72 3
-116 7 -44 4 -102 9 -130 11 -27 3 -66 7 -85 10 -19 2 -64 7 -100 10 -36 3
-83 8 -105 11 -22 2 -64 6 -92 9 -29 3 -79 8 -110 11 -32 3 -76 7 -98 9 -22 1
-40 4 -40 5 0 1 -20 3 -45 5 -48 3 -140 12 -205 20 -22 3 -65 8 -95 10 -30 3
-89 8 -130 11 -41 4 -76 9 -78 13 -1 3 -26 6 -55 6 -28 -1 -77 3 -107 7 -30 5
-82 10 -115 13 -33 2 -85 6 -115 10 -30 3 -80 8 -110 11 -30 3 -66 7 -80 9
-14 2 -54 6 -90 10 -36 3 -85 8 -110 11 -116 14 -178 -2 -225 -58 -24 -29 -45
-85 -45 -124 0 -29 20 -84 39 -106 9 -11 616 -620 1349 -1355 815 -815 1330
-1339 1325 -1344 -13 -13 -233 -59 -317 -66 -126 -10 -445 -12 -451 -2 -4 5
-13 5 -24 -1 -10 -5 -20 -7 -23 -5 -4 5 -43 10 -208 31 -25 3 -53 8 -62 10
-10 3 -30 7 -45 10 -16 3 -57 12 -93 20 -36 9 -74 17 -85 18 -11 2 -33 8 -48
15 -16 6 -34 11 -40 11 -7 0 -32 7 -57 16 -25 9 -52 17 -62 19 -41 9 -184 60
-190 70 -4 5 -8 7 -8 3 0 -8 -67 16 -146 53 -24 10 -45 19 -48 19 -5 0 -40 15
-156 68 -19 9 -38 21 -42 26 -4 6 -8 8 -8 3 0 -4 -40 13 -90 38 -49 25 -93 45
-96 44 -4 0 -10 3 -13 9 -7 10 -46 32 -103 57 -21 10 -38 21 -38 26 0 5 -6 9
-14 9 -8 0 -22 7 -30 16 -9 8 -16 13 -16 10 0 -4 -36 16 -81 44 -44 27 -85 50
-90 50 -5 0 -9 5 -9 10 0 6 -7 10 -15 10 -8 0 -15 5 -15 10 0 6 -7 10 -15 10
-8 0 -15 5 -15 10 0 6 -9 10 -20 10 -11 0 -20 4 -20 9 0 5 -25 23 -54 42 -30
18 -53 36 -50 41 3 5 1 7 -4 6 -10 -3 -115 61 -120 74 -2 4 -10 8 -18 8 -8 0
-17 6 -20 14 -3 8 -19 20 -35 26 -16 7 -33 18 -37 24 -4 6 -26 24 -49 39 -24
15 -43 32 -43 38 0 5 -4 8 -8 5 -5 -3 -23 8 -41 24 -18 17 -35 30 -39 30 -4 0
-21 13 -38 28 -18 15 -42 34 -54 42 -12 8 -32 24 -45 35 -50 44 -121 95 -133
95 -4 0 -17 8 -28 18 -10 10 -23 19 -27 19 -4 1 -27 9 -50 19 -23 9 -46 18
-52 20 -126 30 -230 31 -312 3 -29 -10 -53 -16 -53 -13 0 2 -11 -3 -25 -12
-13 -8 -30 -12 -37 -8 -7 4 -10 4 -6 -1 11 -11 -29 -38 -44 -29 -7 4 -8 3 -4
-4 4 -7 3 -12 -3 -12 -10 0 -184 -165 -319 -303 -37 -38 -107 -108 -155 -155
-49 -48 -227 -224 -397 -392 -170 -168 -349 -344 -398 -393 -49 -48 -87 -87
-83 -87 3 0 -1 -4 -9 -10 -14 -8 -247 -237 -1130 -1110 -180 -179 -555 -549
-832 -822 -277 -273 -673 -665 -880 -870 -208 -206 -378 -373 -378 -373 0 0
-142 -140 -316 -312 -174 -172 -320 -313 -325 -313 -5 0 -9 -4 -9 -10 0 -8
-149 -160 -157 -160 -1 0 -13 -11 -27 -25 -14 -14 -22 -25 -19 -25 3 0 -7 -10
-23 -22 -44 -33 -154 -142 -154 -152 0 -5 -7 -17 -15 -26 -23 -26 -26 -91 -6
-136 36 -79 116 -125 205 -119 48 3 186 52 186 65 0 5 13 11 30 15 16 4 30 10
30 14 0 6 172 93 190 96 3 1 21 8 41 17 20 9 72 28 115 42 44 15 86 30 94 33
16 6 24 9 55 17 11 3 38 10 60 17 61 17 304 68 355 74 25 3 61 8 80 11 148 23
431 32 615 20 176 -12 217 -16 233 -24 9 -5 22 -7 29 -5 11 4 172 -26 258 -49
22 -6 47 -12 55 -13 8 -2 15 -4 15 -5 0 -1 11 -3 25 -6 14 -2 42 -11 63 -19
20 -8 39 -15 42 -15 10 -1 138 -45 170 -59 11 -5 38 -17 60 -26 74 -32 218
-105 244 -124 14 -10 28 -18 31 -18 14 3 246 -164 309 -222 17 -16 31 -27 31
-25 0 6 165 -161 223 -226 26 -29 47 -55 47 -57 0 -3 18 -27 40 -53 22 -26 40
-51 40 -54 0 -4 9 -16 20 -28 11 -12 20 -28 20 -35 0 -7 5 -13 10 -13 6 0 10
-7 10 -15 0 -8 5 -15 10 -15 6 0 10 -7 10 -15 0 -7 6 -18 13 -22 13 -8 163
-300 187 -363 7 -19 14 -37 15 -40 1 -3 7 -18 14 -35 36 -86 86 -255 138 -460
3 -11 5 -30 6 -42 1 -13 5 -23 9 -23 4 0 7 -3 7 -7 -6 -40 30 -87 90 -118 47
-24 131 -21 184 5 23 12 80 57 127 101 120 113 115 108 225 193 55 43 107 83
115 89 8 7 62 44 120 82 58 39 108 75 112 80 5 7 8 7 8 0 0 -6 3 -6 8 1 6 10
36 28 192 118 86 49 430 216 445 216 3 0 24 8 48 18 85 38 271 105 322 117 6
1 17 5 25 8 8 3 35 11 60 18 25 7 50 14 55 15 6 2 53 13 105 25 52 12 102 24
110 27 8 2 22 6 30 7 8 1 33 5 55 10 22 5 43 8 47 7 4 -1 31 3 60 8 236 41
588 48 848 16 48 -6 135 -18 150 -22 13 -2 155 -33 229 -50 14 -3 28 -7 33
-10 4 -3 18 -7 30 -10 26 -6 36 -9 58 -16 8 -3 33 -11 55 -17 22 -7 49 -16 60
-21 11 -4 47 -18 80 -31 33 -12 85 -34 115 -48 30 -14 58 -24 63 -23 4 1 7 -2
7 -6 0 -4 23 -16 51 -27 28 -11 59 -28 70 -38 10 -9 20 -16 23 -15 2 2 38 -17
80 -42 42 -25 86 -49 96 -55 11 -5 20 -13 20 -17 0 -5 7 -8 15 -8 8 0 15 -4
15 -10 0 -5 7 -10 15 -10 8 0 15 -4 15 -10 0 -5 7 -10 15 -10 9 0 18 -7 21
-15 4 -8 12 -15 20 -15 7 0 24 -10 37 -22 13 -13 34 -30 46 -38 13 -8 40 -29
59 -47 20 -17 40 -29 44 -27 5 3 8 1 8 -5 0 -6 16 -21 35 -34 19 -13 32 -27
28 -30 -3 -4 -1 -7 5 -7 20 0 291 -263 386 -374 22 -26 52 -61 66 -76 14 -15
50 -59 80 -98 85 -110 148 -118 225 -28 44 50 51 59 53 68 1 5 13 32 26 60 47
102 120 283 118 291 -1 4 3 7 8 7 6 0 10 5 10 11 0 29 199 406 222 420 5 3 9
10 9 15 -1 5 6 17 14 26 8 10 11 18 7 18 -4 0 2 7 12 15 11 8 16 15 12 15 -5
0 3 15 16 33 14 17 47 64 73 102 27 39 51 72 55 75 3 3 21 25 40 50 46 59 78
97 117 137 18 18 30 33 28 33 -10 0 233 234 302 290 63 52 195 151 233 176 25
16 47 31 50 35 3 3 27 19 53 35 27 16 65 39 85 51 21 12 48 28 62 35 14 7 41
22 61 35 20 12 40 19 43 16 3 -4 6 -1 6 5 0 7 3 11 8 10 4 -1 34 12 67 29 33
17 96 45 140 63 44 18 94 38 112 46 17 8 36 14 42 14 6 0 19 4 29 9 44 25 407
125 491 136 14 2 27 4 29 6 3 2 12 4 62 13 89 15 111 19 210 32 123 17 228 26
327 28 40 0 73 3 73 6 0 6 420 2 535 -5 158 -9 275 -19 375 -31 19 -2 50 -5
68 -6 17 -1 32 -5 32 -8 0 -3 14 -5 31 -4 18 0 53 -3 78 -8 25 -5 57 -10 71
-12 14 -2 25 -4 25 -5 0 -1 20 -4 45 -6 25 -2 113 -18 195 -34 130 -26 187
-45 370 -116 11 -4 25 -9 30 -11 6 -1 47 -14 92 -28 155 -47 334 -80 445 -81
27 0 48 -2 48 -6 0 -10 344 3 390 16 8 2 31 7 50 10 98 16 253 60 350 98 19 8
50 20 69 27 19 7 77 36 130 63 53 28 106 55 118 61 13 6 23 14 23 19 0 4 7 7
15 7 8 0 15 5 15 10 0 6 7 10 15 10 8 0 15 5 15 10 0 6 7 10 15 10 8 0 15 5
15 10 0 6 5 10 10 10 10 0 107 68 136 95 6 6 30 26 54 45 86 70 270 246 270
259 0 4 11 14 25 21 14 7 23 15 20 18 -2 2 7 16 21 31 46 49 84 96 84 104 0 5
5 5 10 2 6 -4 9 -3 8 2 -4 14 48 83 57 75 5 -4 5 -2 2 4 -4 7 7 29 23 50 46
60 40 51 83 126 6 12 18 28 25 36 6 7 12 20 12 28 0 8 7 17 15 20 8 4 13 10
10 14 -7 12 41 101 50 92 5 -4 6 -2 2 3 -3 6 3 30 13 53 11 23 21 50 22 60 2
9 7 20 11 23 4 3 10 19 13 35 3 16 9 33 15 39 5 5 9 19 9 32 0 13 4 23 9 23 6
0 8 9 6 20 -3 14 2 20 13 20 14 0 15 2 2 10 -12 7 -12 13 -1 32 7 13 11 31 9
39 -2 8 3 13 11 11 11 -2 12 0 3 11 -7 8 -9 17 -5 20 3 4 8 19 10 34 2 16 5
46 8 68 3 22 7 54 9 70 3 17 6 62 8 100 2 39 8 73 13 77 6 5 5 8 -3 8 -10 0
-10 5 -2 20 6 11 7 20 3 20 -5 0 -8 30 -8 68 0 37 -3 79 -6 93 -5 18 -2 32 10
45 15 17 15 17 -2 5 -15 -12 -17 -11 -14 5 1 11 6 25 10 31 5 8 3 11 -5 8 -9
-4 -14 2 -15 15 -1 11 4 20 10 20 9 0 9 2 0 8 -7 4 -14 21 -16 38 -2 16 -7 35
-11 42 -4 7 -4 12 0 12 3 0 1 7 -6 15 -9 11 -9 15 -1 15 8 0 7 9 -3 29 -12 22
-12 31 -3 41 9 10 9 11 0 6 -9 -5 -13 1 -13 18 0 14 -6 26 -12 26 -9 0 -8 4 2
10 12 8 12 10 1 10 -8 0 -11 7 -8 20 3 11 1 20 -5 20 -6 0 -7 7 -4 16 3 8 2
12 -4 9 -9 -6 -13 11 -13 57 0 10 -4 15 -8 12 -8 -5 -13 10 -10 29 0 4 -4 7
-10 7 -5 0 -7 6 -3 12 11 18 12 48 2 48 -10 0 -11 47 0 53 4 2 2 2 -5 1 -11
-3 -30 88 -26 123 0 7 -4 13 -10 13 -7 0 -7 4 1 12 7 7 12 17 12 23 0 5 -5 3
-10 -5 -9 -14 -14 10 -13 72 0 10 -4 18 -8 18 -4 0 -6 13 -5 29 1 17 -2 27 -6
25 -5 -3 -7 6 -4 19 2 14 2 28 -2 31 -6 7 -12 50 -14 103 -1 18 -4 33 -7 33
-4 0 -8 11 -9 26 -1 14 2 23 7 19 5 -3 13 -1 16 5 4 6 3 10 -2 9 -4 -1 -15 -1
-23 0 -13 1 -13 2 0 11 8 5 10 10 4 10 -5 0 -10 15 -9 33 0 17 -4 38 -9 46 -9
12 -8 13 4 6 12 -7 13 -6 4 6 -6 8 -11 21 -11 29 0 8 -3 44 -7 80 -10 87 -16
171 -20 251 -1 36 -6 70 -9 76 -4 7 -4 14 0 16 7 4 9 72 3 72 -1 0 -3 69 -4
152 -1 84 2 153 7 153 4 0 4 8 -1 18 -12 26 -6 124 10 133 8 5 8 9 2 9 -11 0
-12 118 -2 136 3 5 5 28 4 52 -1 23 1 42 4 42 3 0 5 20 5 45 -1 25 2 45 6 45
4 0 6 16 4 35 -2 19 0 35 4 35 4 0 7 15 8 33 2 47 8 91 14 102 3 6 4 20 3 32
0 13 2 23 5 23 4 0 7 8 7 18 1 9 4 35 8 57 5 22 9 49 11 60 1 11 17 74 35 140
17 66 33 125 34 130 1 6 13 44 26 85 13 41 25 78 26 83 1 4 3 10 4 15 1 4 2
10 1 15 0 4 3 7 7 7 5 0 9 6 9 13 1 11 20 64 73 197 28 71 172 359 198 396 10
16 41 65 68 109 26 44 52 85 56 90 4 6 51 68 104 140 53 71 109 143 124 160
159 173 188 204 276 285 104 96 192 170 202 170 6 0 12 4 14 9 2 5 44 39 93
75 132 97 133 98 140 94 4 -1 11 5 16 15 6 9 15 17 20 17 6 0 29 13 52 28 78
53 239 142 247 137 5 -3 12 1 17 8 10 16 107 63 273 132 36 15 81 35 100 43
19 9 38 15 42 14 3 -1 12 5 18 13 7 8 19 15 26 15 8 0 14 5 14 10 0 6 4 10 10
10 14 0 57 39 76 68 36 55 21 119 -39 159 -30 21 -48 36 -121 98 -15 14 -33
25 -39 25 -6 0 -7 3 -4 7 4 3 -9 17 -28 30 -19 13 -35 28 -35 34 0 6 -4 7 -10
4 -5 -3 -10 1 -10 9 0 9 -4 16 -9 16 -14 0 -111 98 -111 112 0 6 -3 8 -6 5 -4
-4 -31 19 -61 51 -29 31 -72 76 -94 100 -23 23 -39 42 -36 42 3 0 -12 18 -34
40 -22 22 -37 40 -34 40 3 0 -4 10 -17 23 -13 13 -34 38 -48 57 -14 18 -35 44
-47 59 -13 14 -23 30 -23 34 0 4 -9 17 -20 29 -11 12 -20 28 -20 35 0 8 -4 11
-10 8 -5 -3 -10 1 -10 9 0 9 -8 24 -17 34 -10 10 -25 31 -33 47 -8 17 -20 37
-26 45 -23 29 -124 213 -124 226 0 8 -4 14 -10 14 -5 0 -10 6 -10 13 0 7 -14
39 -31 72 -17 33 -30 61 -30 63 1 1 -7 22 -17 45 -11 24 -25 61 -32 83 -7 21
-16 44 -20 49 -5 6 -10 24 -11 40 -2 17 -7 33 -11 36 -5 3 -9 17 -10 32 -1 15
-5 27 -8 27 -3 0 -12 28 -19 63 -8 34 -17 67 -21 72 -4 6 -6 18 -5 28 2 9 0
17 -5 17 -5 0 -7 8 -6 18 2 9 -1 32 -6 51 -6 19 -11 48 -13 65 -2 17 -4 31 -5
31 -4 0 -15 83 -27 195 -15 141 -8 568 12 680 2 14 6 43 9 65 3 22 8 56 12 75
3 19 6 49 7 65 1 17 5 32 9 35 3 3 8 19 11 37 3 17 8 37 13 44 4 8 3 10 -4 5
-7 -4 -6 7 3 28 9 20 14 39 13 43 0 5 1 15 5 23 6 17 18 65 24 95 2 11 10 37
18 58 8 20 12 37 9 37 -4 0 -1 7 6 15 7 8 10 15 8 15 -3 0 5 30 19 68 13 37
35 101 50 142 14 41 33 85 41 98 8 12 11 22 7 22 -4 0 -3 6 3 13 6 6 11 15 11
19 5 32 199 430 215 440 6 4 7 8 2 8 -5 0 -4 6 2 13 6 6 47 73 92 147 45 74
86 137 91 138 5 2 9 8 9 13 0 8 62 99 97 144 4 6 34 45 67 88 32 42 63 77 69
77 6 0 8 3 4 6 -6 6 18 34 136 158 114 120 143 210 99 308 -23 53 -74 91 -137
104 -22 4 -43 7 -47 6 -5 -1 -8 1 -8 6 0 4 -15 8 -33 9 -17 1 -86 18 -152 38
-66 19 -129 38 -141 40 -11 3 -52 18 -90 33 -38 16 -71 29 -74 29 -17 0 -50
16 -50 24 0 5 -3 8 -7 7 -5 -1 -24 4 -43 11 -19 8 -38 13 -42 13 -3 -1 -12 5
-18 13 -7 8 -20 15 -29 15 -9 0 -22 5 -29 12 -6 6 -18 13 -25 14 -7 1 -30 13
-51 28 -21 14 -43 26 -49 26 -6 0 -25 11 -44 26 -18 14 -33 21 -33 17 0 -4 -4
-3 -8 2 -4 6 -29 25 -57 43 -27 18 -61 40 -74 50 -23 16 -36 26 -110 87 -13
11 -33 28 -43 38 -10 9 -21 17 -24 17 -9 0 -179 175 -229 235 -22 26 -49 58
-60 70 -11 12 -24 29 -30 38 -5 9 -34 51 -63 94 -29 43 -54 83 -55 88 0 6 -8
18 -17 27 -34 36 -192 375 -205 440 -2 9 -8 25 -13 35 -5 10 -15 43 -22 73 -7
30 -17 66 -23 80 -11 28 -13 34 -21 75 -3 17 -12 56 -20 87 -9 42 -10 60 -2
69 8 9 8 10 0 6 -13 -7 -20 30 -40 198 -3 27 -7 52 -9 54 -3 2 0 13 6 24 6 11
7 17 1 13 -6 -3 -10 27 -12 77 -7 207 0 467 13 467 4 0 3 8 -2 19 -6 10 -7 21
-4 25 4 3 8 23 10 44 2 20 6 51 8 67 3 17 8 46 11 65 10 71 26 157 39 211 8
30 17 66 19 80 2 13 5 24 6 24 2 0 9 30 14 55 2 8 8 26 13 40 6 14 9 28 6 33
-2 4 1 7 7 7 6 0 8 5 5 10 -4 6 -2 16 3 23 5 7 13 26 17 42 10 35 9 34 19 60
5 11 14 36 21 55 8 20 19 34 27 32 9 -2 10 0 2 7 -7 8 1 35 28 94 21 45 43 89
48 97 6 8 19 34 31 58 12 23 26 42 32 42 6 0 8 3 5 6 -4 3 5 31 19 62 27 62
34 163 14 201 -7 11 -9 21 -6 21 15 0 -65 74 -97 91 -41 21 -66 22 -115 7z"/>
<path d="M11450 12961 c0 -6 4 -13 10 -16 6 -3 7 1 4 9 -7 18 -14 21 -14 7z"/>
<path d="M11627 12779 c7 -7 15 -10 18 -7 3 3 -2 9 -12 12 -14 6 -15 5 -6 -5z"/>
<path d="M11780 12640 c-9 -6 -10 -10 -3 -10 6 0 15 5 18 10 8 12 4 12 -15 0z"/>
<path d="M18153 5495 c0 -8 4 -12 9 -9 5 3 6 10 3 15 -9 13 -12 11 -12 -6z"/>
<path d="M18140 5366 c0 -2 8 -10 18 -17 15 -13 16 -12 3 4 -13 16 -21 21 -21
13z"/>
<path d="M18155 5260 c-3 -5 -1 -10 4 -10 6 0 11 5 11 10 0 6 -2 10 -4 10 -3
0 -8 -4 -11 -10z"/>
<path d="M18155 5169 c-4 -6 -5 -12 -2 -15 2 -3 7 2 10 11 7 17 1 20 -8 4z"/>
<path d="M18233 5095 c0 -8 4 -12 9 -9 5 3 6 10 3 15 -9 13 -12 11 -12 -6z"/>
<path d="M18179 5088 c-5 -18 -6 -38 -1 -34 7 8 12 36 6 36 -2 0 -4 -1 -5 -2z"/>
<path d="M18316 5038 c3 -5 10 -6 15 -3 13 9 11 12 -6 12 -8 0 -12 -4 -9 -9z"/>
<path d="M18199 4993 c-13 -17 -13 -17 6 -3 11 8 22 16 24 17 2 2 0 3 -6 3 -6
0 -17 -8 -24 -17z"/>
<path d="M18210 4960 c0 -5 5 -10 11 -10 5 0 7 5 4 10 -3 6 -8 10 -11 10 -2 0
-4 -4 -4 -10z"/>
<path d="M18266 4922 c-3 -5 1 -9 9 -9 8 0 12 4 9 9 -3 4 -7 8 -9 8 -2 0 -6
-4 -9 -8z"/>
<path d="M18256 4882 c-3 -5 1 -9 9 -9 8 0 12 4 9 9 -3 4 -7 8 -9 8 -2 0 -6
-4 -9 -8z"/>
<path d="M18313 4695 c0 -8 4 -12 9 -9 5 3 6 10 3 15 -9 13 -12 11 -12 -6z"/>
<path d="M18746 4678 c3 -5 10 -6 15 -3 13 9 11 12 -6 12 -8 0 -12 -4 -9 -9z"/>
<path d="M18279 4273 c-13 -16 -12 -17 4 -4 16 13 21 21 13 21 -2 0 -10 -8
-17 -17z"/>
<path d="M18355 4169 c-4 -6 -5 -12 -2 -15 2 -3 7 2 10 11 7 17 1 20 -8 4z"/>
<path d="M18275 4011 c-3 -5 -2 -12 3 -15 5 -3 9 1 9 9 0 17 -3 19 -12 6z"/>
</g>
</svg>
